<svg height="16" viewBox="0 0 16 16" width="16" xmlns="http://www.w3.org/2000/svg" aria-hidden="true" class="!tw-fill-current tw-flex-shrink-0 tw-mr-1" focusable="false"><path d="M8 1C4.133 1 1 4.213 1 8.177c0 3.171 2.006 5.861 4.787 6.81.35.066.478-.155.478-.346 0-.17-.006-.621-.01-1.22-1.947.434-2.357-.962-2.357-.962-.319-.83-.778-1.05-.778-1.05-.635-.445.048-.437.048-.437.703.051 1.073.74 1.073.74.624 1.097 1.638.78 2.037.596.063-.463.244-.78.444-.959-1.554-.18-3.188-.797-3.188-3.547 0-.783.273-1.424.72-1.926-.072-.181-.312-.911.07-1.9 0 0 .586-.192 1.924.736A6.55 6.55 0 018 4.471a6.557 6.557 0 011.753.241c1.336-.928 1.923-.735 1.923-.735.382.988.141 1.718.07 1.9.448.5.72 1.142.72 1.925 0 2.757-1.638 3.364-3.197 3.542.251.221.475.66.475 1.329 0 .959-.009 1.733-.009 1.968 0 .193.127.416.482.346 2.78-.951 4.783-3.64 4.783-6.81C15 4.213 11.866 1 8 1z"></path></svg>
