<svg width="16" height="16" xmlns="http://www.w3.org/2000/svg" viewBox="0 0 16 16" aria-hidden="true" class="!tw-fill-current tw-flex-shrink-0 tw-mr-1" focusable="false"><path fill-rule="evenodd" d="M1.33 6.36v-.02l1.56-4.8a.77.77 0 011.46 0L5.79 6h4.42l1.44-4.47a.77.77 0 011.46 0l1.55 4.8v.02l.79 2.43c.14.42-.01.9-.37 1.16L8.3 14.9a.5.5 0 01-.62 0L.92 9.93a1.04 1.04 0 01-.37-1.16l.78-2.42zm2.29-3.83L2.5 6h2.24L3.62 2.53zm3.03 9.4L2.83 7h2.23l1.59 4.94zM1.99 7.57L1.5 9.09c0 .01 0 .03.02.04L5.43 12 2 7.56zM9.9 7H6.11L8 12.87 9.9 7zm-.54 4.94L13.17 7h-2.23l-1.59 4.94zM11.26 6h2.24l-1.12-3.47L11.26 6zm-.7 6l3.92-2.87c.02 0 .02-.03.02-.04L14 7.56 10.58 12z" clip-rule="evenodd"></path></svg>
