<svg width="338" height="311" viewBox="0 0 338 311" fill="none" xmlns="http://www.w3.org/2000/svg">
<path d="M168.8 310.966L230.999 119.644H106.692L168.8 310.966Z" fill="#E24329"/>
<path d="M19.572 119.645L0.631036 177.771C-1.08296 183.049 0.768039 188.875 5.29204 192.165L168.801 310.966L19.572 119.645Z" fill="#FCA326"/>
<path d="M19.572 119.645H106.692L69.198 4.42125C67.279 -1.47375 58.916 -1.47375 56.928 4.42125L19.572 119.645Z" fill="#E24329"/>
<path d="M318.12 119.645L336.993 177.771C338.707 183.049 336.856 188.875 332.332 192.165L168.8 310.966L318.12 119.645Z" fill="#FCA326"/>
<path d="M318.12 119.645H231L268.425 4.42125C270.344 -1.47375 278.707 -1.47375 280.695 4.42125L318.12 119.645Z" fill="#E24329"/>
<path d="M168.8 310.966L230.999 119.645H318.12L168.8 310.966Z" fill="#FC6D26"/>
<path d="M168.8 310.966L19.572 119.645H106.692L168.8 310.966Z" fill="#FC6D26"/>
</svg>
